<svg xmlns="http://www.w3.org/2000/svg">
    <symbol id="icon-videocam" viewBox="0 0 24 24">
        <path fill="currentColor" d="M4 20q-0.825 0 -1.412 -0.587T2 18v-12q0 -0.825 0.588 -1.412T4 4h12q0.825 0 1.413 0.588T18 6v4.5l4 -4v11L18 13.5v4.5q0 0.825 -0.587 1.413T16 20H4Zm0 -2h12v-12H4v12Zm0 0v-12 12Z"/>
    </symbol>
    <symbol id="icon-call" viewBox="0 0 24 24">
        <path fill="currentColor" d="M19.95 21q-3.125 0 -6.175 -1.362T8.225 15.775Q5.725 13.275 4.363 10.225T3 4.05q0 -0.45 0.3 -0.75t0.75 -0.3h4.05q0.35 0 0.625 0.238t0.325 0.563l0.65 3.5q0.05 0.4 -0.025 0.675t-0.275 0.475l-2.425 2.45q0.5 0.925 1.188 1.788T9.675 14.35q0.775 0.775 1.625 1.438t1.8 1.213l2.35 -2.35q0.225 -0.225 0.588 -0.337T16.75 14.25l3.45 0.7q0.35 0.1 0.575 0.363t0.225 0.588v4.05q0 0.45 -0.3 0.75t-0.75 0.3ZM6.025 9l1.65 -1.65 -0.425 -2.35h-2.225q0.125 1.025 0.35 2.025t0.65 1.975Zm8.95 8.95q0.975 0.425 1.988 0.675t2.038 0.325v-2.2l-2.35 -0.475 -1.675 1.675ZM6.025 9Zm8.95 8.95Z"/>
    </symbol>
    <symbol id="icon-bin" viewBox="0 0 16 18">
        <path d="M3 18C2.45 18 1.97917 17.8042 1.5875 17.4125C1.19583 17.0208 1 16.55 1 16V3H0V1H5V0H11V1H16V3H15V16C15 16.55 14.8042 17.0208 14.4125 17.4125C14.0208 17.8042 13.55 18 13 18H3ZM13 3H3V16H13V3ZM5 14H7V5H5V14ZM9 14H11V5H9V14Z" fill="currentColor"/>
    </symbol>
    <symbol id="icon-chat" viewBox="0 0 20 20">
        <path d="M4 12H12V10H4V12ZM4 9H16V7H4V9ZM4 6H16V4H4V6ZM0 20V2C0 1.45 0.195833 0.979167 0.5875 0.5875C0.979167 0.195833 1.45 0 2 0H18C18.55 0 19.0208 0.195833 19.4125 0.5875C19.8042 0.979167 20 1.45 20 2V14C20 14.55 19.8042 15.0208 19.4125 15.4125C19.0208 15.8042 18.55 16 18 16H4L0 20ZM3.15 14H18V2H2V15.125L3.15 14Z" fill="currentColor"/>
    </symbol>
    <symbol id="icon-cog" viewBox="0 0 22 20">
        <path d="M8.24922 20L7.84922 16.8C7.63255 16.7167 7.42839 16.6167 7.23672 16.5C7.04505 16.3833 6.85755 16.2583 6.67422 16.125L3.69922 17.375L0.949219 12.625L3.52422 10.675C3.50755 10.5583 3.49922 10.4458 3.49922 10.3375V9.6625C3.49922 9.55417 3.50755 9.44167 3.52422 9.325L0.949219 7.375L3.69922 2.625L6.67422 3.875C6.85755 3.74167 7.04922 3.61667 7.24922 3.5C7.44922 3.38333 7.64922 3.28333 7.84922 3.2L8.24922 0H13.7492L14.1492 3.2C14.3659 3.28333 14.5701 3.38333 14.7617 3.5C14.9534 3.61667 15.1409 3.74167 15.3242 3.875L18.2992 2.625L21.0492 7.375L18.4742 9.325C18.4909 9.44167 18.4992 9.55417 18.4992 9.6625V10.3375C18.4992 10.4458 18.4826 10.5583 18.4492 10.675L21.0242 12.625L18.2742 17.375L15.3242 16.125C15.1409 16.2583 14.9492 16.3833 14.7492 16.5C14.5492 16.6167 14.3492 16.7167 14.1492 16.8L13.7492 20H8.24922ZM9.99922 18H11.9742L12.3242 15.35C12.8409 15.2167 13.3201 15.0208 13.7617 14.7625C14.2034 14.5042 14.6076 14.1917 14.9742 13.825L17.4492 14.85L18.4242 13.15L16.2742 11.525C16.3576 11.2917 16.4159 11.0458 16.4492 10.7875C16.4826 10.5292 16.4992 10.2667 16.4992 10C16.4992 9.73333 16.4826 9.47083 16.4492 9.2125C16.4159 8.95417 16.3576 8.70833 16.2742 8.475L18.4242 6.85L17.4492 5.15L14.9742 6.2C14.6076 5.81667 14.2034 5.49583 13.7617 5.2375C13.3201 4.97917 12.8409 4.78333 12.3242 4.65L11.9992 2H10.0242L9.67422 4.65C9.15755 4.78333 8.67839 4.97917 8.23672 5.2375C7.79505 5.49583 7.39089 5.80833 7.02422 6.175L4.54922 5.15L3.57422 6.85L5.72422 8.45C5.64089 8.7 5.58255 8.95 5.54922 9.2C5.51589 9.45 5.49922 9.71667 5.49922 10C5.49922 10.2667 5.51589 10.525 5.54922 10.775C5.58255 11.025 5.64089 11.275 5.72422 11.525L3.57422 13.15L4.54922 14.85L7.02422 13.8C7.39089 14.1833 7.79505 14.5042 8.23672 14.7625C8.67839 15.0208 9.15755 15.2167 9.67422 15.35L9.99922 18ZM11.0492 13.5C12.0159 13.5 12.8409 13.1583 13.5242 12.475C14.2076 11.7917 14.5492 10.9667 14.5492 10C14.5492 9.03333 14.2076 8.20833 13.5242 7.525C12.8409 6.84167 12.0159 6.5 11.0492 6.5C10.0659 6.5 9.23672 6.84167 8.56172 7.525C7.88672 8.20833 7.54922 9.03333 7.54922 10C7.54922 10.9667 7.88672 11.7917 8.56172 12.475C9.23672 13.1583 10.0659 13.5 11.0492 13.5Z" fill="currentColor"/>
    </symbol>
    <symbol id="icon-info" viewBox="0 0 20 20">
        <path d="M9 15H11V9H9V15ZM10 7C10.2833 7 10.5208 6.90417 10.7125 6.7125C10.9042 6.52083 11 6.28333 11 6C11 5.71667 10.9042 5.47917 10.7125 5.2875C10.5208 5.09583 10.2833 5 10 5C9.71667 5 9.47917 5.09583 9.2875 5.2875C9.09583 5.47917 9 5.71667 9 6C9 6.28333 9.09583 6.52083 9.2875 6.7125C9.47917 6.90417 9.71667 7 10 7ZM10 20C8.61667 20 7.31667 19.7375 6.1 19.2125C4.88333 18.6875 3.825 17.975 2.925 17.075C2.025 16.175 1.3125 15.1167 0.7875 13.9C0.2625 12.6833 0 11.3833 0 10C0 8.61667 0.2625 7.31667 0.7875 6.1C1.3125 4.88333 2.025 3.825 2.925 2.925C3.825 2.025 4.88333 1.3125 6.1 0.7875C7.31667 0.2625 8.61667 0 10 0C11.3833 0 12.6833 0.2625 13.9 0.7875C15.1167 1.3125 16.175 2.025 17.075 2.925C17.975 3.825 18.6875 4.88333 19.2125 6.1C19.7375 7.31667 20 8.61667 20 10C20 11.3833 19.7375 12.6833 19.2125 13.9C18.6875 15.1167 17.975 16.175 17.075 17.075C16.175 17.975 15.1167 18.6875 13.9 19.2125C12.6833 19.7375 11.3833 20 10 20ZM10 18C12.2333 18 14.125 17.225 15.675 15.675C17.225 14.125 18 12.2333 18 10C18 7.76667 17.225 5.875 15.675 4.325C14.125 2.775 12.2333 2 10 2C7.76667 2 5.875 2.775 4.325 4.325C2.775 5.875 2 7.76667 2 10C2 12.2333 2.775 14.125 4.325 15.675C5.875 17.225 7.76667 18 10 18Z" fill="currentColor"/>
    </symbol>
    <symbol id="icon-padlock" viewBox="0 0 16 21">
        <path d="M2 21C1.45 21 0.979167 20.8042 0.5875 20.4125C0.195833 20.0208 0 19.55 0 19V9C0 8.45 0.195833 7.97917 0.5875 7.5875C0.979167 7.19583 1.45 7 2 7H3V5C3 3.61667 3.4875 2.4375 4.4625 1.4625C5.4375 0.4875 6.61667 0 8 0C9.38333 0 10.5625 0.4875 11.5375 1.4625C12.5125 2.4375 13 3.61667 13 5V7H14C14.55 7 15.0208 7.19583 15.4125 7.5875C15.8042 7.97917 16 8.45 16 9V19C16 19.55 15.8042 20.0208 15.4125 20.4125C15.0208 20.8042 14.55 21 14 21H2ZM2 19H14V9H2V19ZM8 16C8.55 16 9.02083 15.8042 9.4125 15.4125C9.80417 15.0208 10 14.55 10 14C10 13.45 9.80417 12.9792 9.4125 12.5875C9.02083 12.1958 8.55 12 8 12C7.45 12 6.97917 12.1958 6.5875 12.5875C6.19583 12.9792 6 13.45 6 14C6 14.55 6.19583 15.0208 6.5875 15.4125C6.97917 15.8042 7.45 16 8 16ZM5 7H11V5C11 4.16667 10.7083 3.45833 10.125 2.875C9.54167 2.29167 8.83333 2 8 2C7.16667 2 6.45833 2.29167 5.875 2.875C5.29167 3.45833 5 4.16667 5 5V7Z" fill="currentColor"/>
    </symbol>
    <symbol id="icon-stats" viewBox="0 0 18 18">
        <path d="M4 14H6V9H4V14ZM12 14H14V4H12V14ZM8 14H10V11H8V14ZM8 9H10V7H8V9ZM2 18C1.45 18 0.979167 17.8042 0.5875 17.4125C0.195833 17.0208 0 16.55 0 16V2C0 1.45 0.195833 0.979167 0.5875 0.5875C0.979167 0.195833 1.45 0 2 0H16C16.55 0 17.0208 0.195833 17.4125 0.5875C17.8042 0.979167 18 1.45 18 2V16C18 16.55 17.8042 17.0208 17.4125 17.4125C17.0208 17.8042 16.55 18 16 18H2ZM2 16H16V2H2V16Z" fill="currentColor"/>
    </symbol>
    <symbol id="icon-refresh" viewBox="0 0 20 20">
        <path d="M10 19.95C8.61667 19.95 7.31667 19.6875 6.1 19.1625C4.88333 18.6375 3.825 17.9208 2.925 17.0125C2.025 16.1042 1.3125 15.0417 0.7875 13.825C0.2625 12.6083 0 11.3167 0 9.95C0 7.33333 0.866667 5.08333 2.6 3.2C4.33333 1.31667 6.46667 0.25 9 0V3C7.28333 3.23333 5.85417 4.00417 4.7125 5.3125C3.57083 6.62083 3 8.16667 3 9.95C3 11.8833 3.68333 13.5333 5.05 14.9C6.41667 16.2667 8.06667 16.95 10 16.95C11.1 16.95 12.1292 16.7167 13.0875 16.25C14.0458 15.7833 14.85 15.15 15.5 14.35L18.1 15.85C17.2 17.1 16.0417 18.0958 14.625 18.8375C13.2083 19.5792 11.6667 19.95 10 19.95ZM19.15 14L16.55 12.5C16.7 12.1 16.8125 11.6875 16.8875 11.2625C16.9625 10.8375 17 10.4 17 9.95C17 8.16667 16.4292 6.62083 15.2875 5.3125C14.1458 4.00417 12.7167 3.23333 11 3V0C13.5333 0.25 15.6667 1.31667 17.4 3.2C19.1333 5.08333 20 7.33333 20 9.95C20 10.6833 19.9333 11.3917 19.8 12.075C19.6667 12.7583 19.45 13.4 19.15 14Z" fill="currentColor"/>
    </symbol>
    <symbol id="icon-data-usage" viewBox="0 0 20 20">
        <path d="M10 19.95C8.61667 19.95 7.31667 19.6875 6.1 19.1625C4.88333 18.6375 3.825 17.9208 2.925 17.0125C2.025 16.1042 1.3125 15.0417 0.7875 13.825C0.2625 12.6083 0 11.3167 0 9.95C0 7.33333 0.866667 5.08333 2.6 3.2C4.33333 1.31667 6.46667 0.25 9 0V3C7.28333 3.23333 5.85417 4.00417 4.7125 5.3125C3.57083 6.62083 3 8.16667 3 9.95C3 11.8833 3.68333 13.5333 5.05 14.9C6.41667 16.2667 8.06667 16.95 10 16.95C11.1 16.95 12.1292 16.7167 13.0875 16.25C14.0458 15.7833 14.85 15.15 15.5 14.35L18.1 15.85C17.2 17.1 16.0417 18.0958 14.625 18.8375C13.2083 19.5792 11.6667 19.95 10 19.95ZM19.15 14L16.55 12.5C16.7 12.1 16.8125 11.6875 16.8875 11.2625C16.9625 10.8375 17 10.4 17 9.95C17 8.16667 16.4292 6.62083 15.2875 5.3125C14.1458 4.00417 12.7167 3.23333 11 3V0C13.5333 0.25 15.6667 1.31667 17.4 3.2C19.1333 5.08333 20 7.33333 20 9.95C20 10.6833 19.9333 11.3917 19.8 12.075C19.6667 12.7583 19.45 13.4 19.15 14Z" fill="currentColor"/>
    </symbol>
    <symbol id="icon-attachment" viewBox="0 0 13 20">
        <path d="M12.5 13.75C12.5 15.4833 11.8917 16.9583 10.675 18.175C9.45833 19.3917 7.98333 20 6.25 20C4.51667 20 3.04167 19.3917 1.825 18.175C0.608333 16.9583 0 15.4833 0 13.75V4.5C0 3.25 0.4375 2.1875 1.3125 1.3125C2.1875 0.4375 3.25 0 4.5 0C5.75 0 6.8125 0.4375 7.6875 1.3125C8.5625 2.1875 9 3.25 9 4.5V13.25C9 14.0167 8.73333 14.6667 8.2 15.2C7.66667 15.7333 7.01667 16 6.25 16C5.48333 16 4.83333 15.7333 4.3 15.2C3.76667 14.6667 3.5 14.0167 3.5 13.25V4H5.5V13.25C5.5 13.4667 5.57083 13.6458 5.7125 13.7875C5.85417 13.9292 6.03333 14 6.25 14C6.46667 14 6.64583 13.9292 6.7875 13.7875C6.92917 13.6458 7 13.4667 7 13.25V4.5C6.98333 3.8 6.7375 3.20833 6.2625 2.725C5.7875 2.24167 5.2 2 4.5 2C3.8 2 3.20833 2.24167 2.725 2.725C2.24167 3.20833 2 3.8 2 4.5V13.75C1.98333 14.9333 2.39167 15.9375 3.225 16.7625C4.05833 17.5875 5.06667 18 6.25 18C7.41667 18 8.40833 17.5875 9.225 16.7625C10.0417 15.9375 10.4667 14.9333 10.5 13.75V4H12.5V13.75Z" fill="currentColor"/>
    </symbol>
    <symbol id="icon-cloud" viewBox="0 0 22 16">
        <path d="M5.5 16C3.98333 16 2.6875 15.475 1.6125 14.425C0.5375 13.375 0 12.0917 0 10.575C0 9.275 0.391667 8.11667 1.175 7.1C1.95833 6.08333 2.98333 5.43333 4.25 5.15C4.66667 3.61667 5.5 2.375 6.75 1.425C8 0.475 9.41667 0 11 0C12.95 0 14.6042 0.679167 15.9625 2.0375C17.3208 3.39583 18 5.05 18 7C19.15 7.13333 20.1042 7.62917 20.8625 8.4875C21.6208 9.34583 22 10.35 22 11.5C22 12.75 21.5625 13.8125 20.6875 14.6875C19.8125 15.5625 18.75 16 17.5 16H5.5ZM5.5 14H17.5C18.2 14 18.7917 13.7583 19.275 13.275C19.7583 12.7917 20 12.2 20 11.5C20 10.8 19.7583 10.2083 19.275 9.725C18.7917 9.24167 18.2 9 17.5 9H16V7C16 5.61667 15.5125 4.4375 14.5375 3.4625C13.5625 2.4875 12.3833 2 11 2C9.61667 2 8.4375 2.4875 7.4625 3.4625C6.4875 4.4375 6 5.61667 6 7H5.5C4.53333 7 3.70833 7.34167 3.025 8.025C2.34167 8.70833 2 9.53333 2 10.5C2 11.4667 2.34167 12.2917 3.025 12.975C3.70833 13.6583 4.53333 14 5.5 14Z" fill="currentColor"/>
    </symbol>
    <symbol id="icon-cloud-disabled" viewBox="0 0 22 20">
        <path d="M18.8 19.8L16.15 17.2H5.5C3.96667 17.2 2.66667 16.6667 1.6 15.6C0.533333 14.5333 0 13.2333 0 11.7C0 10.4167 0.395833 9.275 1.1875 8.275C1.97917 7.275 3 6.63333 4.25 6.35C4.3 6.21667 4.35 6.0875 4.4 5.9625C4.45 5.8375 4.5 5.7 4.55 5.55L0.4 1.4L1.8 0L20.2 18.4L18.8 19.8ZM5.5 15.2H14.15L6.1 7.15C6.06667 7.33333 6.04167 7.50833 6.025 7.675C6.00833 7.84167 6 8.01667 6 8.2H5.5C4.53333 8.2 3.70833 8.54167 3.025 9.225C2.34167 9.90833 2 10.7333 2 11.7C2 12.6667 2.34167 13.4917 3.025 14.175C3.70833 14.8583 4.53333 15.2 5.5 15.2ZM20.6 15.95L19.15 14.55C19.4333 14.3167 19.6458 14.0458 19.7875 13.7375C19.9292 13.4292 20 13.0833 20 12.7C20 12 19.7583 11.4083 19.275 10.925C18.7917 10.4417 18.2 10.2 17.5 10.2H16V8.2C16 6.81667 15.5125 5.6375 14.5375 4.6625C13.5625 3.6875 12.3833 3.2 11 3.2C10.55 3.2 10.1167 3.25417 9.7 3.3625C9.28333 3.47083 8.88333 3.64167 8.5 3.875L7.05 2.425C7.63333 2.025 8.25417 1.72083 8.9125 1.5125C9.57083 1.30417 10.2667 1.2 11 1.2C12.95 1.2 14.6042 1.87917 15.9625 3.2375C17.3208 4.59583 18 6.25 18 8.2C19.15 8.33333 20.1042 8.82917 20.8625 9.6875C21.6208 10.5458 22 11.55 22 12.7C22 13.35 21.875 13.9542 21.625 14.5125C21.375 15.0708 21.0333 15.55 20.6 15.95Z" fill="currentColor"/>
    </symbol>
    <symbol id="icon-dangerous" viewBox="0 0 18 18">
        <path d="M5.25 18L0 12.75V5.25L5.25 0H12.75L18 5.25V12.75L12.75 18H5.25ZM6.15 13.25L9 10.4L11.85 13.25L13.25 11.85L10.4 9L13.25 6.15L11.85 4.75L9 7.6L6.15 4.75L4.75 6.15L7.6 9L4.75 11.85L6.15 13.25ZM6.1 16H11.9L16 11.9V6.1L11.9 2H6.1L2 6.1V11.9L6.1 16Z" fill="currentColor"/>
    </symbol>
    <symbol id="icon-encrypted" viewBox="0 0 16 20">
        <path d="M6.5 13H9.5L8.925 9.775C9.25833 9.60833 9.52083 9.36667 9.7125 9.05C9.90417 8.73333 10 8.38333 10 8C10 7.45 9.80417 6.97917 9.4125 6.5875C9.02083 6.19583 8.55 6 8 6C7.45 6 6.97917 6.19583 6.5875 6.5875C6.19583 6.97917 6 7.45 6 8C6 8.38333 6.09583 8.73333 6.2875 9.05C6.47917 9.36667 6.74167 9.60833 7.075 9.775L6.5 13ZM8 20C5.68333 19.4167 3.77083 18.0875 2.2625 16.0125C0.754167 13.9375 0 11.6333 0 9.1V3L8 0L16 3V9.1C16 11.6333 15.2458 13.9375 13.7375 16.0125C12.2292 18.0875 10.3167 19.4167 8 20ZM8 17.9C9.73333 17.35 11.1667 16.25 12.3 14.6C13.4333 12.95 14 11.1167 14 9.1V4.375L8 2.125L2 4.375V9.1C2 11.1167 2.56667 12.95 3.7 14.6C4.83333 16.25 6.26667 17.35 8 17.9Z" fill="currentColor"/>
    </symbol>
    <symbol id="icon-eye" viewBox="0 0 22 15">
        <path d="M11 12C12.25 12 13.3125 11.5625 14.1875 10.6875C15.0625 9.8125 15.5 8.75 15.5 7.5C15.5 6.25 15.0625 5.1875 14.1875 4.3125C13.3125 3.4375 12.25 3 11 3C9.75 3 8.6875 3.4375 7.8125 4.3125C6.9375 5.1875 6.5 6.25 6.5 7.5C6.5 8.75 6.9375 9.8125 7.8125 10.6875C8.6875 11.5625 9.75 12 11 12ZM11 10.2C10.25 10.2 9.6125 9.9375 9.0875 9.4125C8.5625 8.8875 8.3 8.25 8.3 7.5C8.3 6.75 8.5625 6.1125 9.0875 5.5875C9.6125 5.0625 10.25 4.8 11 4.8C11.75 4.8 12.3875 5.0625 12.9125 5.5875C13.4375 6.1125 13.7 6.75 13.7 7.5C13.7 8.25 13.4375 8.8875 12.9125 9.4125C12.3875 9.9375 11.75 10.2 11 10.2ZM11 15C8.56667 15 6.35 14.3208 4.35 12.9625C2.35 11.6042 0.9 9.78333 0 7.5C0.9 5.21667 2.35 3.39583 4.35 2.0375C6.35 0.679167 8.56667 0 11 0C13.4333 0 15.65 0.679167 17.65 2.0375C19.65 3.39583 21.1 5.21667 22 7.5C21.1 9.78333 19.65 11.6042 17.65 12.9625C15.65 14.3208 13.4333 15 11 15ZM11 13C12.8833 13 14.6125 12.5042 16.1875 11.5125C17.7625 10.5208 18.9667 9.18333 19.8 7.5C18.9667 5.81667 17.7625 4.47917 16.1875 3.4875C14.6125 2.49583 12.8833 2 11 2C9.11667 2 7.3875 2.49583 5.8125 3.4875C4.2375 4.47917 3.03333 5.81667 2.2 7.5C3.03333 9.18333 4.2375 10.5208 5.8125 11.5125C7.3875 12.5042 9.11667 13 11 13Z" fill="currentColor"/>
    </symbol>
    <symbol id="icon-eye-disabled" viewBox="0 0 22 20">
        <path d="M15.1 10.5L13.65 9.05C13.8 8.26667 13.575 7.53333 12.975 6.85C12.375 6.16667 11.6 5.9 10.65 6.05L9.2 4.6C9.48333 4.46667 9.77083 4.36667 10.0625 4.3C10.3542 4.23333 10.6667 4.2 11 4.2C12.25 4.2 13.3125 4.6375 14.1875 5.5125C15.0625 6.3875 15.5 7.45 15.5 8.7C15.5 9.03333 15.4667 9.34583 15.4 9.6375C15.3333 9.92917 15.2333 10.2167 15.1 10.5ZM18.3 13.65L16.85 12.25C17.4833 11.7667 18.0458 11.2375 18.5375 10.6625C19.0292 10.0875 19.45 9.43333 19.8 8.7C18.9667 7.01667 17.7708 5.67917 16.2125 4.6875C14.6542 3.69583 12.9167 3.2 11 3.2C10.5167 3.2 10.0417 3.23333 9.575 3.3C9.10833 3.36667 8.65 3.46667 8.2 3.6L6.65 2.05C7.33333 1.76667 8.03333 1.55417 8.75 1.4125C9.46667 1.27083 10.2167 1.2 11 1.2C13.5167 1.2 15.7583 1.89583 17.725 3.2875C19.6917 4.67917 21.1167 6.48333 22 8.7C21.6167 9.68333 21.1125 10.5958 20.4875 11.4375C19.8625 12.2792 19.1333 13.0167 18.3 13.65ZM18.8 19.8L14.6 15.65C14.0167 15.8333 13.4292 15.9708 12.8375 16.0625C12.2458 16.1542 11.6333 16.2 11 16.2C8.48333 16.2 6.24167 15.5042 4.275 14.1125C2.30833 12.7208 0.883333 10.9167 0 8.7C0.35 7.81667 0.791667 6.99583 1.325 6.2375C1.85833 5.47917 2.46667 4.8 3.15 4.2L0.4 1.4L1.8 0L20.2 18.4L18.8 19.8ZM4.55 5.6C4.06667 6.03333 3.625 6.50833 3.225 7.025C2.825 7.54167 2.48333 8.1 2.2 8.7C3.03333 10.3833 4.22917 11.7208 5.7875 12.7125C7.34583 13.7042 9.08333 14.2 11 14.2C11.3333 14.2 11.6583 14.1792 11.975 14.1375C12.2917 14.0958 12.6167 14.05 12.95 14L12.05 13.05C11.8667 13.1 11.6917 13.1375 11.525 13.1625C11.3583 13.1875 11.1833 13.2 11 13.2C9.75 13.2 8.6875 12.7625 7.8125 11.8875C6.9375 11.0125 6.5 9.95 6.5 8.7C6.5 8.51667 6.5125 8.34167 6.5375 8.175C6.5625 8.00833 6.6 7.83333 6.65 7.65L4.55 5.6Z" fill="currentColor"/>
    </symbol>
    <symbol id="icon-person-shield" viewBox="0 0 18 18">
        <path d="M8.775 16H0V13.2C0 12.6333 0.145833 12.1125 0.4375 11.6375C0.729167 11.1625 1.11667 10.8 1.6 10.55C2.63333 10.0333 3.68333 9.64583 4.75 9.3875C5.81667 9.12917 6.9 9 8 9V11C7.06667 11 6.14167 11.1125 5.225 11.3375C4.30833 11.5625 3.4 11.9 2.5 12.35C2.35 12.4333 2.22917 12.55 2.1375 12.7C2.04583 12.85 2 13.0167 2 13.2V14H8.125C8.19167 14.35 8.27917 14.6917 8.3875 15.025C8.49583 15.3583 8.625 15.6833 8.775 16ZM14 18C12.7833 17.7 11.8125 17.0333 11.0875 16C10.3625 14.9667 10 13.8167 10 12.55V10L14 8L18 10V12.55C18 13.8167 17.6375 14.9667 16.9125 16C16.1875 17.0333 15.2167 17.7 14 18ZM14 15.9C14.6333 15.6 15.125 15.1417 15.475 14.525C15.825 13.9083 16 13.25 16 12.55V11.25L14 10.25L12 11.25V12.55C12 13.25 12.175 13.9083 12.525 14.525C12.875 15.1417 13.3667 15.6 14 15.9ZM8 8C6.9 8 5.95833 7.60833 5.175 6.825C4.39167 6.04167 4 5.1 4 4C4 2.9 4.39167 1.95833 5.175 1.175C5.95833 0.391667 6.9 0 8 0C9.1 0 10.0417 0.391667 10.825 1.175C11.6083 1.95833 12 2.9 12 4C12 5.1 11.6083 6.04167 10.825 6.825C10.0417 7.60833 9.1 8 8 8ZM8 6C8.55 6 9.02083 5.80417 9.4125 5.4125C9.80417 5.02083 10 4.55 10 4C10 3.45 9.80417 2.97917 9.4125 2.5875C9.02083 2.19583 8.55 2 8 2C7.45 2 6.97917 2.19583 6.5875 2.5875C6.19583 2.97917 6 3.45 6 4C6 4.55 6.19583 5.02083 6.5875 5.4125C6.97917 5.80417 7.45 6 8 6Z" fill="currentColor"/>
    </symbol>
    <symbol id="icon-send" viewBox="0 0 19 16">
        <path d="M0 16V0L19 8L0 16ZM2 13L13.85 8L2 3V6.5L8 8L2 9.5V13Z" fill="currentColor"/>
    </symbol>
    <symbol id="icon-send-share" viewBox="0 0 19 18">
        <path d="M15.3135 14.5752C15.3876 14.5753 15.4498 14.6012 15.5 14.6514C15.5502 14.7016 15.5752 14.7637 15.5752 14.8379C15.5752 14.9123 15.5503 14.9751 15.5 15.0254C15.4498 15.0755 15.3876 15.1005 15.3135 15.1006C15.2392 15.1006 15.1763 15.0756 15.126 15.0254C15.0757 14.9751 15.0508 14.9123 15.0508 14.8379C15.0508 14.7637 15.0758 14.7016 15.126 14.6514C15.1763 14.601 15.2391 14.5752 15.3135 14.5752Z" fill="currentColor" />
        <path d="M12.1631 12.7383C12.2373 12.7384 12.2994 12.7633 12.3496 12.8135C12.3998 12.8637 12.4247 12.9258 12.4248 13C12.4248 13.0744 12.3999 13.1372 12.3496 13.1875C12.2994 13.2377 12.2372 13.2626 12.1631 13.2627C12.0887 13.2627 12.0259 13.2378 11.9756 13.1875C11.9253 13.1372 11.9004 13.0744 11.9004 13C11.9005 12.9258 11.9254 12.8637 11.9756 12.8135C12.0259 12.7632 12.0887 12.7383 12.1631 12.7383Z" fill="currentColor" />
        <path d="M15.3135 10.9004C15.3876 10.9005 15.4498 10.9254 15.5 10.9756C15.5503 11.0259 15.5752 11.0887 15.5752 11.1631C15.5751 11.2373 15.5502 11.2994 15.5 11.3496C15.4498 11.3998 15.3876 11.4247 15.3135 11.4248C15.2391 11.4248 15.1763 11.3999 15.126 11.3496C15.0758 11.2994 15.0509 11.2373 15.0508 11.1631C15.0508 11.0887 15.0757 11.0259 15.126 10.9756C15.1763 10.9253 15.2391 10.9004 15.3135 10.9004Z" fill="currentColor" />
        <path fill-rule="evenodd" clip-rule="evenodd" d="M14 8C15.3833 8 16.5621 8.48789 17.5371 9.46289C18.5121 10.4379 19 11.6167 19 13C19 14.3833 18.5121 15.5621 17.5371 16.5371C16.5621 17.5121 15.3833 18 14 18C12.6167 18 11.4379 17.5121 10.4629 16.5371C9.48789 15.5621 9 14.3833 9 13C9 11.6167 9.48789 10.4379 10.4629 9.46289C11.4379 8.48789 12.6167 8 14 8ZM15.3135 10.375C15.0947 10.375 14.908 10.4513 14.7549 10.6045C14.6017 10.7576 14.5254 10.9443 14.5254 11.1631C14.5254 11.1979 14.5261 11.2295 14.5283 11.2578C14.5305 11.2862 14.5362 11.3161 14.5449 11.3467L12.7012 12.4229C12.6312 12.3572 12.5499 12.3057 12.458 12.2686C12.3663 12.2314 12.2679 12.2129 12.1631 12.2129C11.9443 12.2129 11.7576 12.2892 11.6045 12.4424C11.4515 12.5954 11.3751 12.7814 11.375 13C11.375 13.2188 11.4513 13.4054 11.6045 13.5586C11.7576 13.7117 11.9443 13.7881 12.1631 13.7881C12.2679 13.788 12.3663 13.7695 12.458 13.7324C12.5499 13.6952 12.6312 13.6438 12.7012 13.5781L14.5449 14.6543C14.5318 14.7503 14.5254 14.8115 14.5254 14.8379C14.5254 15.0565 14.602 15.2424 14.7549 15.3955C14.908 15.5487 15.0947 15.626 15.3135 15.626C15.532 15.6259 15.7181 15.5485 15.8711 15.3955C16.024 15.2424 16.1006 15.0565 16.1006 14.8379C16.1005 14.6193 16.0241 14.4333 15.8711 14.2803C15.7181 14.1272 15.532 14.0509 15.3135 14.0508C15.2085 14.0508 15.1095 14.0693 15.0176 14.1064C14.9257 14.1436 14.8444 14.1951 14.7744 14.2607L12.9307 13.1846C12.9394 13.154 12.9451 13.1241 12.9473 13.0957C12.9495 13.0673 12.9502 13.035 12.9502 13C12.9502 12.9652 12.9494 12.9336 12.9473 12.9053C12.9451 12.8768 12.9394 12.847 12.9307 12.8164L14.7744 11.7402C14.8444 11.8059 14.9257 11.8573 15.0176 11.8945C15.1095 11.9317 15.2085 11.9502 15.3135 11.9502C15.532 11.9501 15.7181 11.8737 15.8711 11.7207C16.0241 11.5677 16.1005 11.3817 16.1006 11.1631C16.1006 10.9443 16.0242 10.7576 15.8711 10.6045C15.7181 10.4515 15.532 10.3751 15.3135 10.375Z" fill="currentColor" />
        <path d="M14.2998 6H14C13.4167 6 12.8663 6.06686 12.3496 6.2002C11.8331 6.33352 11.3328 6.51673 10.8496 6.75L2 3V6.5L8 8L2 9.5V13L7.40039 10.7002C7.26707 11.0835 7.16627 11.4629 7.09961 11.8379C7.033 12.2128 7 12.6002 7 13V13.0498L0 16V0L14.2998 6Z" fill="currentColor" />
    </symbol>
    <symbol id="icon-share" viewBox="0 0 18 20">
        <path d="M15 20C14.1667 20 13.4583 19.7083 12.875 19.125C12.2917 18.5417 12 17.8333 12 17C12 16.9 12.025 16.6667 12.075 16.3L5.05 12.2C4.78333 12.45 4.475 12.6458 4.125 12.7875C3.775 12.9292 3.4 13 3 13C2.16667 13 1.45833 12.7083 0.875 12.125C0.291667 11.5417 0 10.8333 0 10C0 9.16667 0.291667 8.45833 0.875 7.875C1.45833 7.29167 2.16667 7 3 7C3.4 7 3.775 7.07083 4.125 7.2125C4.475 7.35417 4.78333 7.55 5.05 7.8L12.075 3.7C12.0417 3.58333 12.0208 3.47083 12.0125 3.3625C12.0042 3.25417 12 3.13333 12 3C12 2.16667 12.2917 1.45833 12.875 0.875C13.4583 0.291667 14.1667 0 15 0C15.8333 0 16.5417 0.291667 17.125 0.875C17.7083 1.45833 18 2.16667 18 3C18 3.83333 17.7083 4.54167 17.125 5.125C16.5417 5.70833 15.8333 6 15 6C14.6 6 14.225 5.92917 13.875 5.7875C13.525 5.64583 13.2167 5.45 12.95 5.2L5.925 9.3C5.95833 9.41667 5.97917 9.52917 5.9875 9.6375C5.99583 9.74583 6 9.86667 6 10C6 10.1333 5.99583 10.2542 5.9875 10.3625C5.97917 10.4708 5.95833 10.5833 5.925 10.7L12.95 14.8C13.2167 14.55 13.525 14.3542 13.875 14.2125C14.225 14.0708 14.6 14 15 14C15.8333 14 16.5417 14.2917 17.125 14.875C17.7083 15.4583 18 16.1667 18 17C18 17.8333 17.7083 18.5417 17.125 19.125C16.5417 19.7083 15.8333 20 15 20ZM15 18C15.2833 18 15.5208 17.9042 15.7125 17.7125C15.9042 17.5208 16 17.2833 16 17C16 16.7167 15.9042 16.4792 15.7125 16.2875C15.5208 16.0958 15.2833 16 15 16C14.7167 16 14.4792 16.0958 14.2875 16.2875C14.0958 16.4792 14 16.7167 14 17C14 17.2833 14.0958 17.5208 14.2875 17.7125C14.4792 17.9042 14.7167 18 15 18ZM3 11C3.28333 11 3.52083 10.9042 3.7125 10.7125C3.90417 10.5208 4 10.2833 4 10C4 9.71667 3.90417 9.47917 3.7125 9.2875C3.52083 9.09583 3.28333 9 3 9C2.71667 9 2.47917 9.09583 2.2875 9.2875C2.09583 9.47917 2 9.71667 2 10C2 10.2833 2.09583 10.5208 2.2875 10.7125C2.47917 10.9042 2.71667 11 3 11ZM15 4C15.2833 4 15.5208 3.90417 15.7125 3.7125C15.9042 3.52083 16 3.28333 16 3C16 2.71667 15.9042 2.47917 15.7125 2.2875C15.5208 2.09583 15.2833 2 15 2C14.7167 2 14.4792 2.09583 14.2875 2.2875C14.0958 2.47917 14 2.71667 14 3C14 3.28333 14.0958 3.52083 14.2875 3.7125C14.4792 3.90417 14.7167 4 15 4Z" fill="currentColor"/>
    </symbol>
    <symbol id="icon-timer" viewBox="0 0 16 20">
        <path d="M4 18H12V15C12 13.9 11.6083 12.9583 10.825 12.175C10.0417 11.3917 9.1 11 8 11C6.9 11 5.95833 11.3917 5.175 12.175C4.39167 12.9583 4 13.9 4 15V18ZM8 9C9.1 9 10.0417 8.60833 10.825 7.825C11.6083 7.04167 12 6.1 12 5V2H4V5C4 6.1 4.39167 7.04167 5.175 7.825C5.95833 8.60833 6.9 9 8 9ZM0 20V18H2V15C2 13.9833 2.2375 13.0292 2.7125 12.1375C3.1875 11.2458 3.85 10.5333 4.7 10C3.85 9.46667 3.1875 8.75417 2.7125 7.8625C2.2375 6.97083 2 6.01667 2 5V2H0V0H16V2H14V5C14 6.01667 13.7625 6.97083 13.2875 7.8625C12.8125 8.75417 12.15 9.46667 11.3 10C12.15 10.5333 12.8125 11.2458 13.2875 12.1375C13.7625 13.0292 14 13.9833 14 15V18H16V20H0Z" fill="currentColor"/>
    </symbol>
    <symbol id="icon-warning" viewBox="0 0 22 19">
        <path d="M0 19L11 0L22 19H0ZM3.45 17H18.55L11 4L3.45 17ZM11 16C11.2833 16 11.5208 15.9042 11.7125 15.7125C11.9042 15.5208 12 15.2833 12 15C12 14.7167 11.9042 14.4792 11.7125 14.2875C11.5208 14.0958 11.2833 14 11 14C10.7167 14 10.4792 14.0958 10.2875 14.2875C10.0958 14.4792 10 14.7167 10 15C10 15.2833 10.0958 15.5208 10.2875 15.7125C10.4792 15.9042 10.7167 16 11 16ZM10 13H12V8H10V13Z" fill="currentColor"/>
    </symbol>
    <symbol id="icon-wifi-disabled" viewBox="0 0 24 20">
        <path d="M19.75 19.8L10.35 10.35C9.56667 10.5333 8.8375 10.8083 8.1625 11.175C7.4875 11.5417 6.88333 12 6.35 12.55L4.25 10.4C4.78333 9.86667 5.35833 9.4 5.975 9C6.59167 8.6 7.25 8.25 7.95 7.95L5.7 5.7C5.01667 6.05 4.37917 6.4375 3.7875 6.8625C3.19583 7.2875 2.63333 7.76667 2.1 8.3L0 6.15C0.533333 5.61667 1.0875 5.1375 1.6625 4.7125C2.2375 4.2875 2.85 3.88333 3.5 3.5L1.4 1.4L2.8 0L21.2 18.4L19.75 19.8ZM12 18.2C11.3 18.2 10.7083 17.9542 10.225 17.4625C9.74167 16.9708 9.5 16.3833 9.5 15.7C9.5 15 9.74167 14.4083 10.225 13.925C10.7083 13.4417 11.3 13.2 12 13.2C12.7 13.2 13.2917 13.4417 13.775 13.925C14.2583 14.4083 14.5 15 14.5 15.7C14.5 16.3833 14.2583 16.9708 13.775 17.4625C13.2917 17.9542 12.7 18.2 12 18.2ZM17.9 12.25L17.175 11.525L16.45 10.8L12.85 7.2C14.2 7.33333 15.4625 7.675 16.6375 8.225C17.8125 8.775 18.85 9.5 19.75 10.4L17.9 12.25ZM21.9 8.3C20.6167 7.01667 19.1292 6.0125 17.4375 5.2875C15.7458 4.5625 13.9333 4.2 12 4.2C11.65 4.2 11.3125 4.2125 10.9875 4.2375C10.6625 4.2625 10.3333 4.3 10 4.35L7.45 1.8C8.18333 1.6 8.92917 1.45 9.6875 1.35C10.4458 1.25 11.2167 1.2 12 1.2C14.3667 1.2 16.575 1.64167 18.625 2.525C20.675 3.40833 22.4667 4.61667 24 6.15L21.9 8.3Z" fill="currentColor"/>
    </symbol>
    <symbol id="icon-wifi" viewBox="0 0 24 17">
        <path d="M12 17C11.3 17 10.7083 16.7583 10.225 16.275C9.74167 15.7917 9.5 15.2 9.5 14.5C9.5 13.8 9.74167 13.2083 10.225 12.725C10.7083 12.2417 11.3 12 12 12C12.7 12 13.2917 12.2417 13.775 12.725C14.2583 13.2083 14.5 13.8 14.5 14.5C14.5 15.2 14.2583 15.7917 13.775 16.275C13.2917 16.7583 12.7 17 12 17ZM6.35 11.35L4.25 9.2C5.23333 8.21667 6.3875 7.4375 7.7125 6.8625C9.0375 6.2875 10.4667 6 12 6C13.5333 6 14.9625 6.29167 16.2875 6.875C17.6125 7.45833 18.7667 8.25 19.75 9.25L17.65 11.35C16.9167 10.6167 16.0667 10.0417 15.1 9.625C14.1333 9.20833 13.1 9 12 9C10.9 9 9.86667 9.20833 8.9 9.625C7.93333 10.0417 7.08333 10.6167 6.35 11.35ZM2.1 7.1L0 5C1.53333 3.43333 3.325 2.20833 5.375 1.325C7.425 0.441667 9.63333 0 12 0C14.3667 0 16.575 0.441667 18.625 1.325C20.675 2.20833 22.4667 3.43333 24 5L21.9 7.1C20.6167 5.81667 19.1292 4.8125 17.4375 4.0875C15.7458 3.3625 13.9333 3 12 3C10.0667 3 8.25417 3.3625 6.5625 4.0875C4.87083 4.8125 3.38333 5.81667 2.1 7.1Z" fill="currentColor"/>
    </symbol>
    <symbol id="icon-database-off" viewBox="0 0 20 20">
        <path d="M18.375 19.8L0 1.425L1.4 0L19.8 18.4L18.375 19.8ZM10.6 18.2C8.08333 18.2 5.95417 17.8125 4.2125 17.0375C2.47083 16.2625 1.6 15.3167 1.6 14.2V4.2C1.6 3.76667 1.74583 3.35417 2.0375 2.9625C2.32917 2.57083 2.74167 2.20833 3.275 1.875L9.575 8.175C8.375 8.125 7.26667 7.975 6.25 7.725C5.23333 7.475 4.35 7.14167 3.6 6.725V9.725C4.45 10.2083 5.475 10.575 6.675 10.825C7.875 11.075 9.18333 11.2 10.6 11.2C10.9333 11.2 11.2583 11.1958 11.575 11.1875C11.8917 11.1792 12.2083 11.1583 12.525 11.125L14.275 12.875C13.7083 12.9917 13.1167 13.075 12.5 13.125C11.8833 13.175 11.25 13.2 10.6 13.2C9.18333 13.2 7.875 13.075 6.675 12.825C5.475 12.575 4.45 12.2083 3.6 11.725V14.2C3.75 14.6833 4.5625 15.1375 6.0375 15.5625C7.5125 15.9875 9.03333 16.2 10.6 16.2C11.6667 16.2 12.7375 16.0917 13.8125 15.875C14.8875 15.6583 15.775 15.3917 16.475 15.075L17.925 16.525C17.1083 17.0417 16.0625 17.45 14.7875 17.75C13.5125 18.05 12.1167 18.2 10.6 18.2ZM19.35 15.125L17.6 13.375V11.725C17.4167 11.825 17.2333 11.9167 17.05 12C16.8667 12.0833 16.675 12.1667 16.475 12.25L14.95 10.725C15.45 10.5917 15.9208 10.4458 16.3625 10.2875C16.8042 10.1292 17.2167 9.94167 17.6 9.725V6.725C16.9167 7.10833 16.1333 7.41667 15.25 7.65C14.3667 7.88333 13.4 8.04167 12.35 8.125L10.45 6.225C11.1833 6.225 11.95 6.16667 12.75 6.05C13.55 5.93333 14.2958 5.77917 14.9875 5.5875C15.6792 5.39583 16.2625 5.17917 16.7375 4.9375C17.2125 4.69583 17.5 4.45833 17.6 4.225C17.4167 3.74167 16.5792 3.28333 15.0875 2.85C13.5958 2.41667 12.1 2.2 10.6 2.2C9.98333 2.2 9.35417 2.24167 8.7125 2.325C8.07083 2.40833 7.45833 2.51667 6.875 2.65L5.225 1C5.975 0.75 6.80833 0.554167 7.725 0.4125C8.64167 0.270833 9.6 0.2 10.6 0.2C13.0833 0.2 15.2042 0.591667 16.9625 1.375C18.7208 2.15833 19.6 3.1 19.6 4.2V14.2C19.6 14.3667 19.5792 14.525 19.5375 14.675C19.4958 14.825 19.4333 14.975 19.35 15.125Z" fill="currentColor"/>
    </symbol>
    <symbol id="icon-more-horiz" viewBox="0 0 24 24">
        <path d="M6 10c-1.1 0-2 .9-2 2s.9 2 2 2 2-.9 2-2-.9-2-2-2zm12 0c-1.1 0-2 .9-2 2s.9 2 2 2 2-.9 2-2-.9-2-2-2zm-6 0c-1.1 0-2 .9-2 2s.9 2 2 2 2-.9 2-2-.9-2-2-2z" fill="currentColor"/>
    </symbol>
    <symbol id="icon-copy" viewBox="0 0 24 24">
        <path fill="currentColor" d="M9 18q-0.825 0 -1.412 -0.587T7 16v-12q0 -0.825 0.588 -1.412T9 2h9q0.825 0 1.413 0.588T20 4v12q0 0.825 -0.587 1.413T18 18H9Zm0 -2h9v-12H9v12ZM5 22q-0.825 0 -1.412 -0.587T3 20v-14h2v14h11v2H5Zm4 -6v-12 12Z"/>
    </symbol>
    <symbol id="icon-more-vert" viewBox="0 0 24 24">
        <path d="M12 8c1.1 0 2-.9 2-2s-.9-2-2-2-2 .9-2 2 .9 2 2 2zm0 2c-1.1 0-2 .9-2 2s.9 2 2 2 2-.9 2-2-.9-2-2-2zm0 6c-1.1 0-2 .9-2 2s.9 2 2 2 2-.9 2-2-.9-2-2-2z" fill="currentColor"/>
    </symbol>
    <symbol id="icon-group" viewBox="0 -960 960 960">
        <path d="M40-160v-112q0-34 17.5-62.5T104-378q62-31 126-46.5T360-440q66 0 130 15.5T616-378q29 15 46.5 43.5T680-272v112H40Zm720 0v-120q0-44-24.5-84.5T666-434q51 6 96 20.5t84 35.5q36 20 55 44.5t19 53.5v120H760ZM247-527q-47-47-47-113t47-113q47-47 113-47t113 47q47 47 47 113t-47 113q-47 47-113 47t-113-47Zm466 0q-47 47-113 47-11 0-28-2.5t-28-5.5q27-32 41.5-71t14.5-81q0-42-14.5-81T544-792q14-5 28-6.5t28-1.5q66 0 113 47t47 113q0 66-47 113ZM120-240h480v-32q0-11-5.5-20T580-306q-54-27-109-40.5T360-360q-56 0-111 13.5T140-306q-9 5-14.5 14t-5.5 20v32Zm296.5-343.5Q440-607 440-640t-23.5-56.5Q393-720 360-720t-56.5 23.5Q280-673 280-640t23.5 56.5Q327-560 360-560t56.5-23.5ZM360-240Zm0-400Z" fill="currentColor"/>
    </symbol>
    <symbol id="icon-offline" viewBox="0 0 20 20">
        <path d="M6 15H14V13H6V15ZM8.95 12L14.6 6.35L13.175 4.975L8.95 9.2L6.8 7.05L5.4 8.45L8.95 12ZM10 20C8.61667 20 7.31667 19.7375 6.1 19.2125C4.88333 18.6875 3.825 17.975 2.925 17.075C2.025 16.175 1.3125 15.1167 0.7875 13.9C0.2625 12.6833 0 11.3833 0 10C0 8.61667 0.2625 7.31667 0.7875 6.1C1.3125 4.88333 2.025 3.825 2.925 2.925C3.825 2.025 4.88333 1.3125 6.1 0.7875C7.31667 0.2625 8.61667 0 10 0C11.3833 0 12.6833 0.2625 13.9 0.7875C15.1167 1.3125 16.175 2.025 17.075 2.925C17.975 3.825 18.6875 4.88333 19.2125 6.1C19.7375 7.31667 20 8.61667 20 10C20 11.3833 19.7375 12.6833 19.2125 13.9C18.6875 15.1167 17.975 16.175 17.075 17.075C16.175 17.975 15.1167 18.6875 13.9 19.2125C12.6833 19.7375 11.3833 20 10 20ZM10 18C12.2333 18 14.125 17.225 15.675 15.675C17.225 14.125 18 12.2333 18 10C18 7.76667 17.225 5.875 15.675 4.325C14.125 2.775 12.2333 2 10 2C7.76667 2 5.875 2.775 4.325 4.325C2.775 5.875 2 7.76667 2 10C2 12.2333 2.775 14.125 4.325 15.675C5.875 17.225 7.76667 18 10 18Z" fill="currentColor"/>
    </symbol>
    <symbol id="icon-mic" viewBox="0 0 24 24">
        <path fill="currentColor" d="M12 14q-1.25 0 -2.125 -0.875t-0.875 -2.125v-6q0 -1.25 0.875 -2.125t2.125 -0.875q1.25 0 2.125 0.875t0.875 2.125v6q0 1.25 -0.875 2.125t-2.125 0.875Zm0 -6Zm-1 13v-3.075q-2.6 -0.35 -4.3 -2.325t-1.7 -4.6h2q0 2.075 1.463 3.538T12 16q2.075 0 3.538 -1.463T17 11h2q0 2.625 -1.7 4.6t-4.3 2.325v3.075h-2Zm1 -9q0.425 0 0.713 -0.288T13 11v-6q0 -0.425 -0.288 -0.712T12 4q-0.425 0 -0.712 0.288T11 5v6q0 0.425 0.288 0.713T12 12Z"/>
    </symbol>
    <symbol id="icon-mic-disabled" viewBox="0 0 24 24">
        <path fill="currentColor" d="m17.75 14.95 -1.45 -1.45q0.35 -0.575 0.525 -1.2t0.175 -1.3h2q0 1.1 -0.325 2.088T17.75 14.95ZM12 9.15Zm2.8 2.8 -1.8 -1.8v-5.15q0 -0.425 -0.288 -0.712T12 4q-0.425 0 -0.712 0.288T11 5v3.15l-2 -2v-1.15q0 -1.25 0.875 -2.125t2.125 -0.875q1.25 0 2.125 0.875t0.875 2.125v6q0 0.275 -0.062 0.5t-0.137 0.45ZM11 21v-3.075q-2.6 -0.35 -4.3 -2.325t-1.7 -4.6h2q0 2.075 1.438 3.538T12 16q0.85 0 1.613 -0.262T15 15l1.425 1.425q-0.725 0.575 -1.588 0.975T13 17.925v3.075h-2Zm8.8 1.6L1.4 4.2l1.4 -1.4 18.4 18.4 -1.4 1.4Z"/>
    </symbol>
    <symbol id="icon-fullscreen" viewBox="0 0 24 24">
        <path fill="currentColor" d="M3 21v-5h2v3h3v2H3Zm13 0v-2h3v-3h2v5H16ZM3 8v-5h5v2H5v3h-2Zm16 0v-3H16v-2h5v5h-2Z"/>
    </symbol>
    <symbol id="icon-fullscreen-exit" viewBox="0 0 24 24">
        <path fill="currentColor" d="M6 21v-3H3v-2h5v5h-2Zm10 0v-5h5v2H18v3h-2ZM3 8v-2h3v-3h2v5H3Zm13 0v-5h2v3h3v2H16Z"/>
    </symbol>
    <symbol id="icon-videocam-disabled" viewBox="0 0 24 24">
        <path fill="currentColor" d="M22 17.5 18 13.5v1.675l-2 -2v-7.175H8.825l-2 -2h9.175q0.825 0 1.413 0.588T18 6v4.5l4 -4v11ZM20.55 23.35 0.65 3.45l1.4 -1.4L21.95 21.95l-1.4 1.4ZM12.45 9.625ZM9.55 12.4ZM4 4l2 2h-2v12h12v-2l2 2q0 0.825 -0.587 1.413T16 20H4q-0.825 0 -1.412 -0.587T2 18v-12q0 -0.825 0.588 -1.412T4 4Z"/>
    </symbol>
    <symbol id="icon-flip-camera" viewBox="0 0 24 24">
        <path fill="currentColor" d="M12 18q1.975 0 3.4 -1.338T16.95 13.35l0.75 0.7 1.05 -1.05 -2.5 -2.5 -2.5 2.5 1.05 1.05 0.65 -0.65q-0.15 1.325 -1.125 2.213T12 16.5q-0.325 0 -0.638 -0.062T10.75 16.25l-1.1 1.1q0.55 0.3 1.138 0.475t1.213 0.175ZM7.75 15.5l2.5 -2.5 -1.05 -1.05 -0.65 0.65q0.15 -1.325 1.125 -2.212t2.325 -0.888q0.325 0 0.638 0.063T13.25 9.75l1.1 -1.1q-0.55 -0.3 -1.137 -0.475t-1.213 -0.175q-1.975 0 -3.4 1.338T7.05 12.65l-0.75 -0.7 -1.05 1.05 2.5 2.5ZM4 21q-0.825 0 -1.412 -0.587T2 19v-12q0 -0.825 0.588 -1.412T4 5h3.15l1.85 -2h6l1.85 2h3.15q0.825 0 1.413 0.588T22 7v12q0 0.825 -0.587 1.413T20 21H4Zm0 -2h16v-12H15.95l-1.825 -2H9.875l-1.825 2H4v12Zm8 -6Z"/>
    </symbol>
    <symbol id="icon-chevron-left" viewBox="0 0 24 24">
        <path fill="currentColor" d="M14 18 8 12l6 -6 1.4 1.4 -4.6 4.6 4.6 4.6 -1.4 1.4Z"/>
    </symbol>
    <symbol id="icon-keyboard-arrow-down" viewBox="0 0 24 24">
        <path fill="currentColor" d="M12 15.4 6 9.4l1.4 -1.4 4.6 4.6 4.6 -4.6 1.4 1.4 -6 6Z"/>
    </symbol>
    <symbol id="icon-check" viewBox="0 0 24 24">
        <path fill="currentColor" d="M9.55 18 3.85 12.3l1.425 -1.425 4.275 4.275 9.175 -9.175 1.425 1.425 -10.6 10.6Z"/>
    </symbol>
    <symbol id="icon-close" viewBox="0 0 24 24">
        <path fill="currentColor" d="m6.4 19 -1.4 -1.4 5.6 -5.6 -5.6 -5.6 1.4 -1.4 5.6 5.6 5.6 -5.6 1.4 1.4 -5.6 5.6 5.6 5.6 -1.4 1.4 -5.6 -5.6 -5.6 5.6Z"/>
    </symbol>
    <symbol id="icon-edit" viewBox="0 0 24 24">
        <path fill="currentColor" d="M5 19h1.425l9.775 -9.775 -1.425 -1.425 -9.775 9.775v1.425Zm-2 2v-4.25l13.2 -13.175q0.3 -0.275 0.663 -0.425t0.763 -0.15q0.4 0 0.775 0.15t0.65 0.45l1.375 1.4q0.3 0.275 0.438 0.65t0.138 0.75q0 0.4 -0.137 0.763T20.425 7.825L7.25 21H3Zm16 -14.6 -1.4 -1.4 1.4 1.4Zm-3.525 2.125 -0.7 -0.725 1.425 1.425 -0.725 -0.7Z"/>
    </symbol>
    <symbol id="icon-account-circle-off" viewBox="0 0 24 24">
        <path fill="currentColor" d="M13.45 10.55ZM10.6 13.4Zm1.4 6.6q1.275 0 2.45 -0.387t2.2 -1.112q-1.025 -0.725 -2.2 -1.112T12 17q-1.275 0 -2.45 0.388T7.35 18.5q1.025 0.725 2.2 1.113t2.45 0.388Zm2.65 -8.2 -1.425 -1.425q0.125 -0.2 0.2 -0.425t0.075 -0.45q0 -0.625 -0.437 -1.062T12 8q-0.225 0 -0.45 0.075t-0.425 0.2l-1.425 -1.425q0.475 -0.425 1.063 -0.638T12 6q1.45 0 2.475 1.025t1.025 2.475q0 0.65 -0.213 1.238T14.65 11.8Zm5.7 5.7 -1.45 -1.45q0.55 -0.925 0.825 -1.95t0.275 -2.1q0 -3.35 -2.325 -5.675t-5.675 -2.325q-1.075 0 -2.1 0.275t-1.95 0.825l-1.45 -1.45q1.225 -0.8 2.625 -1.225t2.875 -0.425q2.075 0 3.9 0.788T19.075 4.925q1.35 1.35 2.138 3.175T22 12q0 1.475 -0.425 2.875t-1.225 2.625ZM12 22q-2.075 0 -3.9 -0.788T4.925 19.075q-1.35 -1.35 -2.137 -3.175T2 12q0 -1.475 0.413 -2.875T3.625 6.475L0.675 3.5l1.425 -1.425L21.9 21.875l-1.425 1.425 -15.375 -15.35q-0.55 0.925 -0.825 1.95t-0.275 2.1q0 1.425 0.475 2.725t1.375 2.375q1.35 -1.025 2.913 -1.562T12 15q0.95 0 1.9 0.2t1.85 0.55l3.325 3.325q-1.425 1.425 -3.25 2.175T12 22Z"/>
    </symbol>
    <symbol id="icon-mobile-chat" viewBox="0 0 24 24">
        <path fill="currentColor" d="M7 21v-18 18Zm10 0v-2 2Zm-2 -6h5v-3H15v3Zm-2 4v-8q0 -0.425 0.288 -0.712T14 10h7q0.425 0 0.713 0.288T22 11v5q0 0.425 -0.288 0.713T21 17H15l-2 2ZM7 23q-0.825 0 -1.412 -0.587T5 21v-18q0 -0.825 0.588 -1.412T7 1h10q0.825 0 1.413 0.588T19 3v5h-2v-5H7v18h10v-2h2v2q0 0.825 -0.587 1.413T17 23H7Zm5 -17q0.425 0 0.713 -0.288T13 5q0 -0.425 -0.288 -0.712T12 4q-0.425 0 -0.712 0.288T11 5q0 0.425 0.288 0.713T12 6Zm3 9v-3 3Z"/>
    </symbol>
    <symbol id="icon-code" viewBox="0 0 24 24">
        <path fill="currentColor" d="M8 18 2 12l6 -6 1.425 1.425 -4.6 4.6 4.575 4.575 -1.4 1.4Zm8 0 -1.425 -1.425 4.6 -4.6 -4.575 -4.575 1.4 -1.4 6 6 -6 6Z"/>
    </symbol>
    <symbol id="icon-key" viewBox="0 0 24 24">
        <path fill="currentColor" d="M7 14q-0.825 0 -1.412 -0.587T5 12q0 -0.825 0.588 -1.412T7 10q0.825 0 1.413 0.588T9 12q0 0.825 -0.587 1.413T7 14Zm0 4q-2.5 0 -4.25 -1.75T1 12q0 -2.5 1.75 -4.25t4.25 -1.75q1.675 0 3.038 0.825t2.163 2.175h8.8l3 3 -4.5 4.5 -2 -1.5 -2 1.5 -2.125 -1.5h-1.175q-0.8 1.35 -2.162 2.175T7 18Zm0 -2q1.4 0 2.463 -0.85t1.413 -2.15h3.125l1.45 1.025 2.05 -1.525 1.775 1.375 1.875 -1.875 -1 -1H10.875q-0.35 -1.3 -1.412 -2.15T7 8q-1.65 0 -2.825 1.175t-1.175 2.825q0 1.65 1.175 2.825t2.825 1.175Z"/>
    </symbol>
    <symbol id="icon-save" viewBox="0 0 24 24">
        <path fill="currentColor" d="M21 7v12q0 0.825 -0.587 1.413T19 21H5q-0.825 0 -1.412 -0.587T3 19v-14q0 -0.825 0.588 -1.412T5 3h12l4 4Zm-2 0.85L16.15 5H5v14h14v-11.15ZM12 18q1.25 0 2.125 -0.875t0.875 -2.125q0 -1.25 -0.875 -2.125t-2.125 -0.875q-1.25 0 -2.125 0.875t-0.875 2.125q0 1.25 0.875 2.125t2.125 0.875ZM6 10h9v-4H6v4Zm-1 -2.15v11.15 -14 2.85Z"/>
    </symbol>
    <symbol id="icon-upload" viewBox="0 0 24 24">
        <path fill="currentColor" d="M11 19h2v-4.175l1.6 1.6 1.4 -1.425 -4 -4 -4 4 1.425 1.4 1.575 -1.575v4.175ZM6 22q-0.825 0 -1.412 -0.587T4 20v-16q0 -0.825 0.588 -1.412T6 2h8l6 6v12q0 0.825 -0.587 1.413T18 22H6Zm7 -13v-5H6v16h12v-11H13ZM6 4v5 -5 16 -16Z"/>
    </symbol>
    <symbol id="icon-description" viewBox="0 0 24 24">
        <path fill="currentColor" d="M8 18h8v-2H8v2Zm0 -4h8v-2H8v2ZM6 22q-0.825 0 -1.412 -0.587T4 20v-16q0 -0.825 0.588 -1.412T6 2h8l6 6v12q0 0.825 -0.587 1.413T18 22H6Zm7 -13v-5H6v16h12v-11H13ZM6 4v5 -5 16 -16Z"/>
    </symbol>
</svg>
