<svg xmlns="http://www.w3.org/2000/svg" viewBox="0 0 512 512">
  <style>
    path { fill: #000; }
    @media (prefers-color-scheme: dark) { path { fill: #fff; } }
  </style>
  <path d="M247.78 351.087C247.793 399.933 247.806 448.024 247.817 496.116C247.818 498.382 247.841 500.648 247.799 502.914C247.628 512.14 246.094 513.113 238.423 508.384C225.141 500.197 211.499 492.48 198.903 483.333C189.885 476.784 182.976 477.055 174.015 483.387C160.888 492.662 146.763 500.528 133.027 508.935C130.71 510.353 128.442 512.091 125.378 511.848C122.265 509.705 123.344 506.405 123.33 503.567C123.234 484.683 122.982 465.792 123.434 446.919C123.612 439.508 121.404 434.969 114.775 431.134C99.5356 422.318 84.892 412.479 69.8895 403.245C60.8674 397.693 56.8859 389.686 56.8887 379.296C56.9088 303.76 56.8774 228.225 56.8948 152.689C56.8971 143.055 57.8547 142.047 67.075 142.039C97.5384 142.01 128.012 141.579 158.462 142.223C183.799 142.759 206.741 150.6 226.414 167.385C241.266 180.056 247.992 195.765 247.887 215.123C247.645 260.191 247.791 305.261 247.78 351.087ZM90.6906 252.076C90.6687 290.863 90.8447 329.651 90.455 368.434C90.3786 376.033 92.9562 380.45 99.4371 384.078C111.069 390.591 122.394 397.679 133.637 404.854C156.261 419.293 152.56 411.811 153.015 439.618C153.119 445.968 151.901 452.477 154.299 459.864C163.228 454.06 171.638 449.053 179.515 443.314C185.107 439.241 189.852 439.482 195.317 443.241C200.427 446.755 205.933 449.694 211.239 452.871C214.909 448.985 213.813 444.768 213.818 440.904C213.899 368.116 213.602 295.326 214.12 222.541C214.251 204.058 206.768 191.838 190.455 184.262C183.569 181.064 176.483 178.67 168.906 177.696C147.071 174.888 125.144 176.732 103.264 176.309C90.6157 176.064 90.6167 176.28 90.6311 188.607C90.6552 209.26 90.6719 229.912 90.6906 252.076Z"/>
  <path d="M320.002 441.121C345.855 424.387 371.246 407.947 396.623 391.487C399.582 389.568 402.393 387.412 405.4 385.575C418.599 377.513 425.446 366.443 423.74 350.398C422.892 342.428 423.701 334.29 423.617 326.23C423.553 320.069 425.887 316.815 432.612 317.258C438.389 317.639 444.209 317.339 450.01 317.383C453.086 317.407 455.59 318.359 455.774 321.945C456.729 340.545 458.029 359.17 455.011 377.696C452.781 391.383 443.688 400.533 433.181 408.263C405.337 428.75 375.23 445.795 346.253 464.562C322.987 479.63 299.344 494.12 275.848 508.834C273.542 510.277 271.113 512.792 268.347 511.525C265 509.993 266.042 506.276 266.043 503.37C266.07 406.883 266.421 310.395 266.042 213.909C265.921 183.13 283.882 166.091 308.442 153.386C323.173 145.765 339.073 141.95 355.765 141.931C386.034 141.896 416.303 141.859 446.572 141.875C455.456 141.88 456.619 142.979 456.669 151.851C456.763 168.225 456.816 184.602 456.631 200.975C456.525 210.407 455.437 211.208 446.013 211.066C442.23 211.01 438.446 211.02 434.662 211.004C424.236 210.96 423.775 210.52 423.727 199.766C423.701 193.973 423.71 188.177 423.878 182.387C423.994 178.373 422.455 176.069 418.233 176.177C393.557 176.808 368.829 174.534 344.192 177.549C334.213 178.77 325.34 182.679 316.892 187.938C305.673 194.923 300.001 204.906 300 218.063C299.995 293.893 300.015 369.722 300.063 445.551C300.065 447.481 299.545 449.639 302.161 451.877C308.485 449.858 313.549 444.78 320.002 441.121Z"/>
  <path d="M358.488 57.3104C370.192 77.2232 371.542 98.5396 370.676 120.292C370.503 124.654 367.883 125.703 364.152 125.684C357.605 125.651 351.051 125.494 344.513 125.735C338.589 125.954 336.43 123.217 336.505 117.587C336.644 107.097 337.109 96.5843 333.712 86.3536C323.193 54.6783 298.525 41.1754 267.884 34.9242C239.653 29.1649 192.244 46.9763 180.437 84.3448C177.137 94.7892 176.56 105.506 176.985 116.274C177.267 123.441 174.545 126.619 167.28 125.723C165.792 125.54 164.261 125.715 162.751 125.696C139.763 125.407 143.083 128.699 143.025 106.395C142.909 62.266 170.33 24.8875 214.494 8.45913C260.262 -8.56636 312.117 3.63818 345.364 39.2506C350.358 44.5992 354.605 50.4821 358.488 57.3104Z"/>
</svg>
